<svg xmlns="http://www.w3.org/2000/svg" version="1.1" xmlns:xlink="http://www.w3.org/1999/xlink" xmlns:svgjs="http://svgjs.dev/svgjs" width="1500" height="1500" viewBox="0 0 1500 1500"><g transform="matrix(1,0,0,1,-0.323615160350073,-0.3236151603499593)"><svg viewBox="0 0 343 343" data-background-color="#000000" preserveAspectRatio="xMidYMid meet" height="1500" width="1500" xmlns="http://www.w3.org/2000/svg" xmlns:xlink="http://www.w3.org/1999/xlink"><g id="tight-bounds" transform="matrix(1,0,0,1,0.0740000000000407,0.07400000000001228)"><svg viewBox="0 0 342.85155851775386 342.85155851775386" height="342.85155851775386" width="342.85155851775386"><rect width="342.852" height="342.852" fill="url(#eedde06c-8480-41c7-ad16-431aa9f5b9f7)" mask="url(#11c7be81-75c5-463e-8b95-1fa1c07677a1)" data-fill-palette-color="tertiary"></rect><g><svg></svg></g><g><svg viewBox="0 0 342.85155851775386 342.85155851775386" height="342.85155851775386" width="342.85155851775386"><g><path d="M0 171.426c0-94.676 76.75-171.426 171.426-171.426 94.676 0 171.426 76.75 171.426 171.426 0 94.676-76.75 171.426-171.426 171.426-94.676 0-171.426-76.75-171.426-171.426zM171.426 339.959c93.078 0 168.533-75.455 168.533-168.533 0-93.078-75.455-168.533-168.533-168.533-93.078 0-168.533 75.455-168.533 168.533 0 93.078 75.455 168.533 168.533 168.533z" data-fill-palette-color="tertiary" fill="url(#eedde06c-8480-41c7-ad16-431aa9f5b9f7)" stroke="transparent"></path><ellipse rx="164.56874808852186" ry="164.56874808852186" cx="171.42577925887693" cy="171.42577925887693" fill="url(#eedde06c-8480-41c7-ad16-431aa9f5b9f7)" stroke="transparent" stroke-width="0" fill-opacity="1" data-fill-palette-color="tertiary"></ellipse></g><g transform="matrix(1,0,0,1,64.84655864529837,119.7419942626717)"><svg viewBox="0 0 213.1584412271571 103.36756999241047" height="103.36756999241047" width="213.1584412271571"><g><svg viewBox="0 0 213.1584412271571 103.36756999241047" height="103.36756999241047" width="213.1584412271571"><g><svg viewBox="0 0 213.1584412271571 103.36756999241047" height="103.36756999241047" width="213.1584412271571"><g><svg viewBox="0 0 213.1584412271571 103.36756999241047" height="103.36756999241047" width="213.1584412271571"><g id="textblocktransform"><svg viewBox="0 0 213.1584412271571 103.36756999241047" height="103.36756999241047" width="213.1584412271571" id="textblock"><g><svg viewBox="0 0 213.1584412271571 103.36756999241047" height="103.36756999241047" width="213.1584412271571"><g transform="matrix(1,0,0,1,0,0)"><svg width="213.1584412271571" viewBox="0.3999970000399987 -39.949999999999996 272.40000299995995 127.35000000000002" height="103.36756999241047" data-palette-color="#000000"><svg></svg><svg></svg><svg></svg><g class="wordmark-text-0" data-fill-palette-color="quaternary" id="text-0"><path d="M28.15-1.2l-11-33.6-10.95 33.6v-0.05c-0.2 0.5-0.473 0.907-0.82 1.22-0.353 0.32-0.78 0.48-1.28 0.48v0c-0.267 0-0.523-0.023-0.77-0.07-0.253-0.053-0.513-0.113-0.78-0.18v0h0.05c-1.9-0.6-2.6-1.667-2.1-3.2v0l11.4-34.65c0.167-0.533 0.46-0.983 0.88-1.35 0.413-0.367 0.903-0.583 1.47-0.65v0c0.567-0.1 1.117-0.177 1.65-0.23 0.533-0.047 0.95-0.07 1.25-0.07v0c0.3 0 0.717 0.023 1.25 0.07 0.533 0.053 1.083 0.113 1.65 0.18v0c0.467 0.067 0.927 0.317 1.38 0.75 0.447 0.433 0.787 0.867 1.02 1.3v0c1.867 5.733 3.76 11.507 5.68 17.32 1.913 5.82 3.803 11.597 5.67 17.33v0c0.467 1.533-0.233 2.6-2.1 3.2v0c-0.267 0.067-0.507 0.127-0.72 0.18-0.22 0.047-0.463 0.07-0.73 0.07v0c-0.467 0-0.89-0.16-1.27-0.48-0.387-0.313-0.663-0.72-0.83-1.22v0zM20.9-12v0c0 1.067-0.373 1.973-1.12 2.72-0.753 0.753-1.663 1.13-2.73 1.13v0c-1.067 0-1.967-0.377-2.7-1.13-0.733-0.747-1.1-1.653-1.1-2.72v0c0-1.067 0.367-1.977 1.1-2.73 0.733-0.747 1.633-1.12 2.7-1.12v0c1.067 0 1.977 0.373 2.73 1.12 0.747 0.753 1.12 1.663 1.12 2.73zM65.25-11.3v3.3c0 2.7-0.9 4.717-2.7 6.05v0c-0.867 0.633-1.757 1.123-2.67 1.47-0.92 0.353-1.813 0.53-2.68 0.53v0h-10.9c-0.867 0-1.757-0.177-2.67-0.53-0.92-0.347-1.813-0.837-2.68-1.47v0c-0.867-0.667-1.533-1.49-2-2.47-0.467-0.987-0.7-2.18-0.7-3.58v0-23.75c0-1.333 0.233-2.507 0.7-3.52 0.467-1.02 1.133-1.847 2-2.48v0h-0.05c0.867-0.567 1.767-1.033 2.7-1.4 0.933-0.367 1.833-0.55 2.7-0.55v0h10.9c0.867 0 1.767 0.183 2.7 0.55 0.933 0.367 1.833 0.833 2.7 1.4v0h-0.05c0.867 0.633 1.533 1.46 2 2.48 0.467 1.013 0.7 2.187 0.7 3.52v0 3.45c0 1.6-1 2.4-3 2.4v0c-1.967 0-2.95-0.8-2.95-2.4v0-3c0-0.833-0.25-1.6-0.75-2.3-0.5-0.7-1.367-1.05-2.6-1.05v0h-8.4c-1.233 0-2.1 0.35-2.6 1.05-0.5 0.7-0.75 1.467-0.75 2.3v0 22.9c0 0.867 0.25 1.65 0.75 2.35 0.5 0.7 1.367 1.05 2.6 1.05v0h8.4c1.233 0 2.1-0.35 2.6-1.05 0.5-0.7 0.75-1.483 0.75-2.35v0-2.9c0-1.567 0.983-2.35 2.95-2.35v0c2 0 3 0.783 3 2.35zM94 0.05h-18.3c-1.233 0-2.067-0.317-2.5-0.95-0.433-0.633-0.65-1.333-0.65-2.1v0-33.7c0-0.767 0.217-1.46 0.65-2.08 0.433-0.613 1.267-0.92 2.5-0.92v0h17.4c1.233 0 1.883 0.833 1.95 2.5v0c0.067 1.7-0.583 2.55-1.95 2.55v0h-14.65v29.65h15.55c1.233 0 1.867 0.817 1.9 2.45v0c0.067 1.733-0.567 2.6-1.9 2.6zM91.25-20.65v0c0 1.167-0.407 2.15-1.22 2.95-0.82 0.8-1.813 1.2-2.98 1.2v0c-1.133 0-2.1-0.4-2.9-1.2-0.8-0.8-1.2-1.783-1.2-2.95v0c0-1.167 0.4-2.15 1.2-2.95 0.8-0.8 1.767-1.2 2.9-1.2v0c1.167 0 2.16 0.4 2.98 1.2 0.813 0.8 1.22 1.783 1.22 2.95z" fill="#000000" fill-rule="nonzero" stroke="none" stroke-width="1" stroke-linecap="butt" stroke-linejoin="miter" stroke-miterlimit="10" stroke-dasharray="" stroke-dashoffset="0" font-family="none" font-weight="none" font-size="none" text-anchor="none" style="mix-blend-mode: normal" data-fill-palette-color="quaternary" opacity="1"></path><path d="M30.95 32.15v3.3c0 2.7-0.9 4.717-2.7 6.05v0c-0.867 0.633-1.757 1.123-2.67 1.47-0.92 0.353-1.813 0.53-2.68 0.53v0h-10.9c-0.867 0-1.757-0.177-2.67-0.53-0.92-0.347-1.813-0.837-2.68-1.47v0c-0.867-0.667-1.533-1.49-2-2.47-0.467-0.987-0.7-2.18-0.7-3.58v0-23.75c0-1.333 0.233-2.507 0.7-3.52 0.467-1.02 1.133-1.847 2-2.48v0h-0.05c0.867-0.567 1.767-1.033 2.7-1.4 0.933-0.367 1.833-0.55 2.7-0.55v0h10.9c0.867 0 1.767 0.183 2.7 0.55 0.933 0.367 1.833 0.833 2.7 1.4v0h-0.05c0.867 0.633 1.533 1.46 2 2.48 0.467 1.013 0.7 2.187 0.7 3.52v0 3.45c0 1.6-1 2.4-3 2.4v0c-1.967 0-2.95-0.8-2.95-2.4v0-3c0-0.833-0.25-1.6-0.75-2.3-0.5-0.7-1.367-1.05-2.6-1.05v0h-8.4c-1.233 0-2.1 0.35-2.6 1.05-0.5 0.7-0.75 1.467-0.75 2.3v0 22.9c0 0.867 0.25 1.65 0.75 2.35 0.5 0.7 1.367 1.05 2.6 1.05v0h8.4c1.233 0 2.1-0.35 2.6-1.05 0.5-0.7 0.75-1.483 0.75-2.35v0-2.9c0-1.567 0.983-2.35 2.95-2.35v0c2 0 3 0.783 3 2.35zM46.2 3.75h10.9c0.867 0 1.767 0.183 2.7 0.55 0.933 0.367 1.833 0.833 2.7 1.4v0h-0.05c0.867 0.633 1.533 1.46 2 2.48 0.467 1.013 0.7 2.187 0.7 3.52v0 23.75c0 2.7-0.9 4.717-2.7 6.05v0c-0.867 0.633-1.757 1.123-2.67 1.47-0.92 0.353-1.813 0.53-2.68 0.53v0h-10.9c-0.867 0-1.757-0.177-2.67-0.53-0.92-0.347-1.813-0.837-2.68-1.47v0c-0.867-0.667-1.533-1.49-2-2.47-0.467-0.987-0.7-2.18-0.7-3.58v0-23.75c0-1.333 0.233-2.507 0.7-3.52 0.467-1.02 1.133-1.847 2-2.48v0h-0.05c0.867-0.567 1.767-1.033 2.7-1.4 0.933-0.367 1.833-0.55 2.7-0.55zM47.45 38.45h8.4c1.233 0 2.1-0.35 2.6-1.05 0.5-0.7 0.75-1.483 0.75-2.35v0-22.9c0-0.833-0.25-1.6-0.75-2.3-0.5-0.7-1.367-1.05-2.6-1.05v0h-8.4c-1.233 0-2.1 0.35-2.6 1.05-0.5 0.7-0.75 1.467-0.75 2.3v0 22.9c0 0.867 0.25 1.65 0.75 2.35 0.5 0.7 1.367 1.05 2.6 1.05zM78.65 8.8v32.55c0 1.6-0.983 2.4-2.95 2.4v0c-1.967 0-2.95-0.8-2.95-2.4v0-34.6c0-0.767 0.217-1.46 0.65-2.08 0.433-0.613 1.267-0.92 2.5-0.92v0h17c1.2 0 1.833 0.833 1.9 2.5v0c0.067 1.7-0.567 2.55-1.9 2.55v0zM91.45 22.8v0c0 0.567-0.107 1.107-0.32 1.62-0.22 0.52-0.52 0.963-0.9 1.33-0.387 0.367-0.83 0.66-1.33 0.88-0.5 0.213-1.05 0.32-1.65 0.32v0c-1.133 0-2.1-0.4-2.9-1.2-0.8-0.8-1.2-1.783-1.2-2.95v0c0-1.167 0.4-2.15 1.2-2.95 0.8-0.8 1.767-1.2 2.9-1.2v0c0.6 0 1.15 0.107 1.65 0.32 0.5 0.22 0.943 0.52 1.33 0.9 0.38 0.387 0.68 0.83 0.9 1.33 0.213 0.5 0.32 1.033 0.32 1.6zM106.2 8.8v32.55c0 1.6-0.983 2.4-2.95 2.4v0c-1.967 0-2.95-0.8-2.95-2.4v0-34.6c0-0.767 0.217-1.46 0.65-2.08 0.433-0.613 1.267-0.92 2.5-0.92v0h17c1.2 0 1.833 0.833 1.9 2.5v0c0.067 1.7-0.567 2.55-1.9 2.55v0zM119 22.8v0c0 0.567-0.11 1.107-0.33 1.62-0.213 0.52-0.51 0.963-0.89 1.33-0.387 0.367-0.83 0.66-1.33 0.88-0.5 0.213-1.05 0.32-1.65 0.32v0c-1.133 0-2.1-0.4-2.9-1.2-0.8-0.8-1.2-1.783-1.2-2.95v0c0-1.167 0.4-2.15 1.2-2.95 0.8-0.8 1.767-1.2 2.9-1.2v0c0.6 0 1.15 0.107 1.65 0.32 0.5 0.22 0.943 0.52 1.33 0.9 0.38 0.387 0.677 0.83 0.89 1.33 0.22 0.5 0.33 1.033 0.33 1.6zM149.3 43.5h-18.3c-1.233 0-2.067-0.317-2.5-0.95-0.433-0.633-0.65-1.333-0.65-2.1v0-33.7c0-0.767 0.217-1.46 0.65-2.08 0.433-0.613 1.267-0.92 2.5-0.92v0h17.4c1.233 0 1.883 0.833 1.95 2.5v0c0.067 1.7-0.583 2.55-1.95 2.55v0h-14.65v29.65h15.55c1.233 0 1.867 0.817 1.9 2.45v0c0.067 1.733-0.567 2.6-1.9 2.6zM146.55 22.8v0c0 1.167-0.41 2.15-1.23 2.95-0.813 0.8-1.803 1.2-2.97 1.2v0c-1.133 0-2.1-0.4-2.9-1.2-0.8-0.8-1.2-1.783-1.2-2.95v0c0-1.167 0.4-2.15 1.2-2.95 0.8-0.8 1.767-1.2 2.9-1.2v0c1.167 0 2.157 0.4 2.97 1.2 0.82 0.8 1.23 1.783 1.23 2.95zM178.1 43.5h-18.3c-1.233 0-2.067-0.317-2.5-0.95-0.433-0.633-0.65-1.333-0.65-2.1v0-33.7c0-0.767 0.217-1.46 0.65-2.08 0.433-0.613 1.267-0.92 2.5-0.92v0h17.4c1.233 0 1.883 0.833 1.95 2.5v0c0.067 1.7-0.583 2.55-1.95 2.55v0h-14.65v29.65h15.55c1.233 0 1.867 0.817 1.9 2.45v0c0.067 1.733-0.567 2.6-1.9 2.6zM175.35 22.8v0c0 1.167-0.407 2.15-1.22 2.95-0.82 0.8-1.813 1.2-2.98 1.2v0c-1.133 0-2.1-0.4-2.9-1.2-0.8-0.8-1.2-1.783-1.2-2.95v0c0-1.167 0.4-2.15 1.2-2.95 0.8-0.8 1.767-1.2 2.9-1.2v0c1.167 0 2.16 0.4 2.98 1.2 0.813 0.8 1.22 1.783 1.22 2.95z" fill="#000000" fill-rule="nonzero" stroke="none" stroke-width="1" stroke-linecap="butt" stroke-linejoin="miter" stroke-miterlimit="10" stroke-dasharray="" stroke-dashoffset="0" font-family="none" font-weight="none" font-size="none" text-anchor="none" style="mix-blend-mode: normal" data-fill-palette-color="quaternary" opacity="1"></path><path d="M13.3 64.05h9.65c0.867 0 1.767 0.183 2.7 0.55 0.933 0.367 1.833 0.85 2.7 1.45v0h-0.05c0.867 0.6 1.533 1.417 2 2.45 0.467 1.033 0.7 2.217 0.7 3.55v0 6.85c0 2.7-0.9 4.717-2.7 6.05v0c-0.867 0.633-1.757 1.123-2.67 1.47-0.92 0.353-1.813 0.53-2.68 0.53v0h-10.9c-0.867 0-1.757-0.177-2.67-0.53-0.92-0.347-1.813-0.837-2.68-1.47v0c-1.8-1.333-2.7-3.35-2.7-6.05v0-3.3c0-1.567 0.983-2.35 2.95-2.35v0c2 0 3 0.783 3 2.35v0 2.9c0 0.867 0.25 1.65 0.75 2.35 0.5 0.7 1.367 1.05 2.6 1.05v0h8.4c1.233 0 2.1-0.35 2.6-1.05 0.5-0.7 0.75-1.483 0.75-2.35v0-6.05c0-0.833-0.25-1.61-0.75-2.33-0.5-0.713-1.367-1.07-2.6-1.07v0h-9.65c-1.733 0-3.517-0.633-5.35-1.9v0c-1.8-1.4-2.7-3.417-2.7-6.05v0-5.95c0-1.333 0.233-2.507 0.7-3.52 0.467-1.02 1.133-1.847 2-2.48v0h-0.05c0.867-0.567 1.767-1.033 2.7-1.4 0.933-0.367 1.833-0.55 2.7-0.55v0h10.9c0.867 0 1.767 0.183 2.7 0.55 0.933 0.367 1.833 0.833 2.7 1.4v0h-0.05c0.867 0.633 1.533 1.46 2 2.48 0.467 1.013 0.7 2.187 0.7 3.52v0 2.95c0 1.567-1 2.35-3 2.35v0c-1.967 0-2.95-0.783-2.95-2.35v0-2.5c0-0.833-0.25-1.6-0.75-2.3-0.5-0.7-1.367-1.05-2.6-1.05v0h-8.4c-1.233 0-2.1 0.35-2.6 1.05-0.5 0.7-0.75 1.467-0.75 2.3v0 5.1c0 0.867 0.25 1.64 0.75 2.32 0.5 0.687 1.367 1.03 2.6 1.03zM65.8 49.35v29.55c0 2.7-0.9 4.717-2.7 6.05v0c-0.867 0.633-1.757 1.123-2.67 1.47-0.92 0.353-1.813 0.53-2.68 0.53v0h-10.9c-0.867 0-1.757-0.177-2.67-0.53-0.92-0.347-1.813-0.837-2.68-1.47v0c-0.867-0.667-1.533-1.49-2-2.47-0.467-0.987-0.7-2.18-0.7-3.58v0-29.55c0-1.6 0.983-2.4 2.95-2.4v0c2 0 3 0.8 3 2.4v0 29.15c0 0.867 0.25 1.65 0.75 2.35 0.5 0.7 1.367 1.05 2.6 1.05v0h8.4c1.233 0 2.1-0.35 2.6-1.05 0.5-0.7 0.75-1.483 0.75-2.35v0-29.15c0-1.6 0.983-2.4 2.95-2.4v0c2 0 3 0.8 3 2.4zM91.2 72.2h-6.9c-0.567 0-1.007-0.227-1.32-0.68-0.32-0.447-0.48-1.053-0.48-1.82v0c0-1.7 0.7-2.55 2.1-2.55v0h5.3c1.233 0 2.11-0.35 2.63-1.05 0.513-0.7 0.77-1.467 0.77-2.3v0-8.2c0-0.833-0.257-1.6-0.77-2.3-0.52-0.7-1.397-1.05-2.63-1.05v0h-10.5v32.65c0 1.6-1 2.4-3 2.4v0c-1.933 0-2.9-0.8-2.9-2.4v0-34.7c0-1.2 0.3-2 0.9-2.4 0.6-0.4 1.333-0.6 2.2-0.6v0h14.6c0.833 0 1.717 0.183 2.65 0.55 0.933 0.367 1.833 0.833 2.7 1.4v0h-0.05c0.867 0.633 1.533 1.46 2 2.48 0.467 1.013 0.7 2.187 0.7 3.52v0 9.05c0 2.7-0.9 4.717-2.7 6.05v0c-0.867 0.633-1.75 1.117-2.65 1.45-0.9 0.333-1.783 0.5-2.65 0.5zM124.55 72.2h-6.9c-0.567 0-1.007-0.227-1.32-0.68-0.32-0.447-0.48-1.053-0.48-1.82v0c0-1.7 0.7-2.55 2.1-2.55v0h5.3c1.233 0 2.11-0.35 2.63-1.05 0.513-0.7 0.77-1.467 0.77-2.3v0-8.2c0-0.833-0.257-1.6-0.77-2.3-0.52-0.7-1.397-1.05-2.63-1.05v0h-10.5v32.65c0 1.6-1 2.4-3 2.4v0c-1.933 0-2.9-0.8-2.9-2.4v0-34.7c0-1.2 0.3-2 0.9-2.4 0.6-0.4 1.333-0.6 2.2-0.6v0h14.6c0.833 0 1.717 0.183 2.65 0.55 0.933 0.367 1.833 0.833 2.7 1.4v0h-0.05c0.867 0.633 1.533 1.46 2 2.48 0.467 1.013 0.7 2.187 0.7 3.52v0 9.05c0 2.7-0.9 4.717-2.7 6.05v0c-0.867 0.633-1.75 1.117-2.65 1.45-0.9 0.333-1.783 0.5-2.65 0.5zM162.75 86.95h-19.45c-1.233 0-2.067-0.317-2.5-0.95-0.433-0.633-0.65-1.333-0.65-2.1v0-34.55c0-1.6 0.967-2.4 2.9-2.4v0c2 0 3 0.8 3 2.4v0 32.55h16.7c1.2 0 1.8 0.817 1.8 2.45v0c0.067 1.733-0.533 2.6-1.8 2.6zM175.3 49.35v35.45c0 1.6-1 2.4-3 2.4v0c-1.967 0-2.95-0.8-2.95-2.4v0-35.45c0-1.6 0.983-2.4 2.95-2.4v0c2 0 3 0.8 3 2.4zM204.8 86.95h-18.3c-1.233 0-2.067-0.317-2.5-0.95-0.433-0.633-0.65-1.333-0.65-2.1v0-33.7c0-0.767 0.217-1.46 0.65-2.08 0.433-0.613 1.267-0.92 2.5-0.92v0h17.4c1.233 0 1.883 0.833 1.95 2.5v0c0.067 1.7-0.583 2.55-1.95 2.55v0h-14.65v29.65h15.55c1.233 0 1.867 0.817 1.9 2.45v0c0.067 1.733-0.567 2.6-1.9 2.6zM202.05 66.25v0c0 1.167-0.407 2.15-1.22 2.95-0.82 0.8-1.813 1.2-2.98 1.2v0c-1.133 0-2.1-0.4-2.9-1.2-0.8-0.8-1.2-1.783-1.2-2.95v0c0-1.167 0.4-2.15 1.2-2.95 0.8-0.8 1.767-1.2 2.9-1.2v0c1.167 0 2.16 0.4 2.98 1.2 0.813 0.8 1.22 1.783 1.22 2.95zM235.7 86.3l-9.45-15.85h-3.85c-0.567 0-1.007-0.227-1.32-0.68-0.32-0.447-0.48-1.053-0.48-1.82v0c0-1.7 0.7-2.55 2.1-2.55v0h5.85c1.233 0 2.1-0.35 2.6-1.05 0.5-0.7 0.75-1.467 0.75-2.3v0-6.45c0-0.833-0.25-1.6-0.75-2.3-0.5-0.7-1.367-1.05-2.6-1.05v0h-10.55v32.6c0 1.6-0.983 2.4-2.95 2.4v0c-1.967 0-2.95-0.8-2.95-2.4v0-34.65c0-1.2 0.31-2 0.93-2.4 0.613-0.4 1.353-0.6 2.22-0.6v0h14.55c0.867 0 1.767 0.183 2.7 0.55 0.933 0.367 1.833 0.833 2.7 1.4v0h-0.05c0.867 0.633 1.533 1.46 2 2.48 0.467 1.013 0.7 2.187 0.7 3.52v0 7.3c0 2.7-0.9 4.717-2.7 6.05v0c-0.367 0.267-0.757 0.517-1.17 0.75-0.42 0.233-0.847 0.467-1.28 0.7v0l8 13.2c0.1 0.167 0.2 0.383 0.3 0.65 0.1 0.267 0.15 0.483 0.15 0.65v0c0 0.8-0.567 1.567-1.7 2.3v0-0.05c-0.767 0.467-1.417 0.7-1.95 0.7v0c-0.767 0-1.383-0.383-1.85-1.15v0zM255.1 64.05h9.65c0.867 0 1.767 0.183 2.7 0.55 0.933 0.367 1.833 0.85 2.7 1.45v0h-0.05c0.867 0.6 1.533 1.417 2 2.45 0.467 1.033 0.7 2.217 0.7 3.55v0 6.85c0 2.7-0.9 4.717-2.7 6.05v0c-0.867 0.633-1.757 1.123-2.67 1.47-0.92 0.353-1.813 0.53-2.68 0.53v0h-10.9c-0.867 0-1.757-0.177-2.67-0.53-0.92-0.347-1.813-0.837-2.68-1.47v0c-1.8-1.333-2.7-3.35-2.7-6.05v0-3.3c0-1.567 0.983-2.35 2.95-2.35v0c2 0 3 0.783 3 2.35v0 2.9c0 0.867 0.25 1.65 0.75 2.35 0.5 0.7 1.367 1.05 2.6 1.05v0h8.4c1.233 0 2.1-0.35 2.6-1.05 0.5-0.7 0.75-1.483 0.75-2.35v0-6.05c0-0.833-0.25-1.61-0.75-2.33-0.5-0.713-1.367-1.07-2.6-1.07v0h-9.65c-1.733 0-3.517-0.633-5.35-1.9v0c-1.8-1.4-2.7-3.417-2.7-6.05v0-5.95c0-1.333 0.233-2.507 0.7-3.52 0.467-1.02 1.133-1.847 2-2.48v0h-0.05c0.867-0.567 1.767-1.033 2.7-1.4 0.933-0.367 1.833-0.55 2.7-0.55v0h10.9c0.867 0 1.767 0.183 2.7 0.55 0.933 0.367 1.833 0.833 2.7 1.4v0h-0.05c0.867 0.633 1.533 1.46 2 2.48 0.467 1.013 0.7 2.187 0.7 3.52v0 2.95c0 1.567-1 2.35-3 2.35v0c-1.967 0-2.95-0.783-2.95-2.35v0-2.5c0-0.833-0.25-1.6-0.75-2.3-0.5-0.7-1.367-1.05-2.6-1.05v0h-8.4c-1.233 0-2.1 0.35-2.6 1.05-0.5 0.7-0.75 1.467-0.75 2.3v0 5.1c0 0.867 0.25 1.64 0.75 2.32 0.5 0.687 1.367 1.03 2.6 1.03z" fill="#000000" fill-rule="nonzero" stroke="none" stroke-width="1" stroke-linecap="butt" stroke-linejoin="miter" stroke-miterlimit="10" stroke-dasharray="" stroke-dashoffset="0" font-family="none" font-weight="none" font-size="none" text-anchor="none" style="mix-blend-mode: normal" data-fill-palette-color="quaternary" opacity="1"></path></g></svg></g></svg></g></svg></g></svg></g><g></g></svg></g></svg></g></svg></g></svg></g><defs></defs><mask id="11c7be81-75c5-463e-8b95-1fa1c07677a1"><g id="SvgjsG2735"><svg viewBox="0 0 342.85155851775386 342.85155851775386" height="342.85155851775386" width="342.85155851775386"><g><svg></svg></g><g><svg viewBox="0 0 342.85155851775386 342.85155851775386" height="342.85155851775386" width="342.85155851775386"><g><path d="M0 171.426c0-94.676 76.75-171.426 171.426-171.426 94.676 0 171.426 76.75 171.426 171.426 0 94.676-76.75 171.426-171.426 171.426-94.676 0-171.426-76.75-171.426-171.426zM171.426 339.959c93.078 0 168.533-75.455 168.533-168.533 0-93.078-75.455-168.533-168.533-168.533-93.078 0-168.533 75.455-168.533 168.533 0 93.078 75.455 168.533 168.533 168.533z" fill="white" stroke="transparent"></path><ellipse rx="164.56874808852186" ry="164.56874808852186" cx="171.42577925887693" cy="171.42577925887693" fill="white" stroke="transparent" stroke-width="0" fill-opacity="1"></ellipse></g><g transform="matrix(1,0,0,1,64.84655864529837,119.7419942626717)"><svg viewBox="0 0 213.1584412271571 103.36756999241047" height="103.36756999241047" width="213.1584412271571"><g><svg viewBox="0 0 213.1584412271571 103.36756999241047" height="103.36756999241047" width="213.1584412271571"><g><svg viewBox="0 0 213.1584412271571 103.36756999241047" height="103.36756999241047" width="213.1584412271571"><g><svg viewBox="0 0 213.1584412271571 103.36756999241047" height="103.36756999241047" width="213.1584412271571"><g id="SvgjsG2734"><svg viewBox="0 0 213.1584412271571 103.36756999241047" height="103.36756999241047" width="213.1584412271571" id="SvgjsSvg2733"><g><svg viewBox="0 0 213.1584412271571 103.36756999241047" height="103.36756999241047" width="213.1584412271571"><g transform="matrix(1,0,0,1,0,0)"><svg width="213.1584412271571" viewBox="0.3999970000399987 -39.949999999999996 272.40000299995995 127.35000000000002" height="103.36756999241047" data-palette-color="#000000"><svg></svg><svg></svg><svg></svg><g class="wordmark-text-0" data-fill-palette-color="quaternary" id="SvgjsG2732"><path d="M28.15-1.2l-11-33.6-10.95 33.6v-0.05c-0.2 0.5-0.473 0.907-0.82 1.22-0.353 0.32-0.78 0.48-1.28 0.48v0c-0.267 0-0.523-0.023-0.77-0.07-0.253-0.053-0.513-0.113-0.78-0.18v0h0.05c-1.9-0.6-2.6-1.667-2.1-3.2v0l11.4-34.65c0.167-0.533 0.46-0.983 0.88-1.35 0.413-0.367 0.903-0.583 1.47-0.65v0c0.567-0.1 1.117-0.177 1.65-0.23 0.533-0.047 0.95-0.07 1.25-0.07v0c0.3 0 0.717 0.023 1.25 0.07 0.533 0.053 1.083 0.113 1.65 0.18v0c0.467 0.067 0.927 0.317 1.38 0.75 0.447 0.433 0.787 0.867 1.02 1.3v0c1.867 5.733 3.76 11.507 5.68 17.32 1.913 5.82 3.803 11.597 5.67 17.33v0c0.467 1.533-0.233 2.6-2.1 3.2v0c-0.267 0.067-0.507 0.127-0.72 0.18-0.22 0.047-0.463 0.07-0.73 0.07v0c-0.467 0-0.89-0.16-1.27-0.48-0.387-0.313-0.663-0.72-0.83-1.22v0zM20.9-12v0c0 1.067-0.373 1.973-1.12 2.72-0.753 0.753-1.663 1.13-2.73 1.13v0c-1.067 0-1.967-0.377-2.7-1.13-0.733-0.747-1.1-1.653-1.1-2.72v0c0-1.067 0.367-1.977 1.1-2.73 0.733-0.747 1.633-1.12 2.7-1.12v0c1.067 0 1.977 0.373 2.73 1.12 0.747 0.753 1.12 1.663 1.12 2.73zM65.25-11.3v3.3c0 2.7-0.9 4.717-2.7 6.05v0c-0.867 0.633-1.757 1.123-2.67 1.47-0.92 0.353-1.813 0.53-2.68 0.53v0h-10.9c-0.867 0-1.757-0.177-2.67-0.53-0.92-0.347-1.813-0.837-2.68-1.47v0c-0.867-0.667-1.533-1.49-2-2.47-0.467-0.987-0.7-2.18-0.7-3.58v0-23.75c0-1.333 0.233-2.507 0.7-3.52 0.467-1.02 1.133-1.847 2-2.48v0h-0.05c0.867-0.567 1.767-1.033 2.7-1.4 0.933-0.367 1.833-0.55 2.7-0.55v0h10.9c0.867 0 1.767 0.183 2.7 0.55 0.933 0.367 1.833 0.833 2.7 1.4v0h-0.05c0.867 0.633 1.533 1.46 2 2.48 0.467 1.013 0.7 2.187 0.7 3.52v0 3.45c0 1.6-1 2.4-3 2.4v0c-1.967 0-2.95-0.8-2.95-2.4v0-3c0-0.833-0.25-1.6-0.75-2.3-0.5-0.7-1.367-1.05-2.6-1.05v0h-8.4c-1.233 0-2.1 0.35-2.6 1.05-0.5 0.7-0.75 1.467-0.75 2.3v0 22.9c0 0.867 0.25 1.65 0.75 2.35 0.5 0.7 1.367 1.05 2.6 1.05v0h8.4c1.233 0 2.1-0.35 2.6-1.05 0.5-0.7 0.75-1.483 0.75-2.35v0-2.9c0-1.567 0.983-2.35 2.95-2.35v0c2 0 3 0.783 3 2.35zM94 0.05h-18.3c-1.233 0-2.067-0.317-2.5-0.95-0.433-0.633-0.65-1.333-0.65-2.1v0-33.7c0-0.767 0.217-1.46 0.65-2.08 0.433-0.613 1.267-0.92 2.5-0.92v0h17.4c1.233 0 1.883 0.833 1.95 2.5v0c0.067 1.7-0.583 2.55-1.95 2.55v0h-14.65v29.65h15.55c1.233 0 1.867 0.817 1.9 2.45v0c0.067 1.733-0.567 2.6-1.9 2.6zM91.25-20.65v0c0 1.167-0.407 2.15-1.22 2.95-0.82 0.8-1.813 1.2-2.98 1.2v0c-1.133 0-2.1-0.4-2.9-1.2-0.8-0.8-1.2-1.783-1.2-2.95v0c0-1.167 0.4-2.15 1.2-2.95 0.8-0.8 1.767-1.2 2.9-1.2v0c1.167 0 2.16 0.4 2.98 1.2 0.813 0.8 1.22 1.783 1.22 2.95z" fill="black" fill-rule="nonzero" stroke="none" stroke-width="1" stroke-linecap="butt" stroke-linejoin="miter" stroke-miterlimit="10" stroke-dasharray="" stroke-dashoffset="0" font-family="none" font-weight="none" font-size="none" text-anchor="none" style="mix-blend-mode: normal" opacity="1"></path><path d="M30.95 32.15v3.3c0 2.7-0.9 4.717-2.7 6.05v0c-0.867 0.633-1.757 1.123-2.67 1.47-0.92 0.353-1.813 0.53-2.68 0.53v0h-10.9c-0.867 0-1.757-0.177-2.67-0.53-0.92-0.347-1.813-0.837-2.68-1.47v0c-0.867-0.667-1.533-1.49-2-2.47-0.467-0.987-0.7-2.18-0.7-3.58v0-23.75c0-1.333 0.233-2.507 0.7-3.52 0.467-1.02 1.133-1.847 2-2.48v0h-0.05c0.867-0.567 1.767-1.033 2.7-1.4 0.933-0.367 1.833-0.55 2.7-0.55v0h10.9c0.867 0 1.767 0.183 2.7 0.55 0.933 0.367 1.833 0.833 2.7 1.4v0h-0.05c0.867 0.633 1.533 1.46 2 2.48 0.467 1.013 0.7 2.187 0.7 3.52v0 3.45c0 1.6-1 2.4-3 2.4v0c-1.967 0-2.95-0.8-2.95-2.4v0-3c0-0.833-0.25-1.6-0.75-2.3-0.5-0.7-1.367-1.05-2.6-1.05v0h-8.4c-1.233 0-2.1 0.35-2.6 1.05-0.5 0.7-0.75 1.467-0.75 2.3v0 22.9c0 0.867 0.25 1.65 0.75 2.35 0.5 0.7 1.367 1.05 2.6 1.05v0h8.4c1.233 0 2.1-0.35 2.6-1.05 0.5-0.7 0.75-1.483 0.75-2.35v0-2.9c0-1.567 0.983-2.35 2.95-2.35v0c2 0 3 0.783 3 2.35zM46.2 3.75h10.9c0.867 0 1.767 0.183 2.7 0.55 0.933 0.367 1.833 0.833 2.7 1.4v0h-0.05c0.867 0.633 1.533 1.46 2 2.48 0.467 1.013 0.7 2.187 0.7 3.52v0 23.75c0 2.7-0.9 4.717-2.7 6.05v0c-0.867 0.633-1.757 1.123-2.67 1.47-0.92 0.353-1.813 0.53-2.68 0.53v0h-10.9c-0.867 0-1.757-0.177-2.67-0.53-0.92-0.347-1.813-0.837-2.68-1.47v0c-0.867-0.667-1.533-1.49-2-2.47-0.467-0.987-0.7-2.18-0.7-3.58v0-23.75c0-1.333 0.233-2.507 0.7-3.52 0.467-1.02 1.133-1.847 2-2.48v0h-0.05c0.867-0.567 1.767-1.033 2.7-1.4 0.933-0.367 1.833-0.55 2.7-0.55zM47.45 38.45h8.4c1.233 0 2.1-0.35 2.6-1.05 0.5-0.7 0.75-1.483 0.75-2.35v0-22.9c0-0.833-0.25-1.6-0.75-2.3-0.5-0.7-1.367-1.05-2.6-1.05v0h-8.4c-1.233 0-2.1 0.35-2.6 1.05-0.5 0.7-0.75 1.467-0.75 2.3v0 22.9c0 0.867 0.25 1.65 0.75 2.35 0.5 0.7 1.367 1.05 2.6 1.05zM78.65 8.8v32.55c0 1.6-0.983 2.4-2.95 2.4v0c-1.967 0-2.95-0.8-2.95-2.4v0-34.6c0-0.767 0.217-1.46 0.65-2.08 0.433-0.613 1.267-0.92 2.5-0.92v0h17c1.2 0 1.833 0.833 1.9 2.5v0c0.067 1.7-0.567 2.55-1.9 2.55v0zM91.45 22.8v0c0 0.567-0.107 1.107-0.32 1.62-0.22 0.52-0.52 0.963-0.9 1.33-0.387 0.367-0.83 0.66-1.33 0.88-0.5 0.213-1.05 0.32-1.65 0.32v0c-1.133 0-2.1-0.4-2.9-1.2-0.8-0.8-1.2-1.783-1.2-2.95v0c0-1.167 0.4-2.15 1.2-2.95 0.8-0.8 1.767-1.2 2.9-1.2v0c0.6 0 1.15 0.107 1.65 0.32 0.5 0.22 0.943 0.52 1.33 0.9 0.38 0.387 0.68 0.83 0.9 1.33 0.213 0.5 0.32 1.033 0.32 1.6zM106.2 8.8v32.55c0 1.6-0.983 2.4-2.95 2.4v0c-1.967 0-2.95-0.8-2.95-2.4v0-34.6c0-0.767 0.217-1.46 0.65-2.08 0.433-0.613 1.267-0.92 2.5-0.92v0h17c1.2 0 1.833 0.833 1.9 2.5v0c0.067 1.7-0.567 2.55-1.9 2.55v0zM119 22.8v0c0 0.567-0.11 1.107-0.33 1.62-0.213 0.52-0.51 0.963-0.89 1.33-0.387 0.367-0.83 0.66-1.33 0.88-0.5 0.213-1.05 0.32-1.65 0.32v0c-1.133 0-2.1-0.4-2.9-1.2-0.8-0.8-1.2-1.783-1.2-2.95v0c0-1.167 0.4-2.15 1.2-2.95 0.8-0.8 1.767-1.2 2.9-1.2v0c0.6 0 1.15 0.107 1.65 0.32 0.5 0.22 0.943 0.52 1.33 0.9 0.38 0.387 0.677 0.83 0.89 1.33 0.22 0.5 0.33 1.033 0.33 1.6zM149.3 43.5h-18.3c-1.233 0-2.067-0.317-2.5-0.95-0.433-0.633-0.65-1.333-0.65-2.1v0-33.7c0-0.767 0.217-1.46 0.65-2.08 0.433-0.613 1.267-0.92 2.5-0.92v0h17.4c1.233 0 1.883 0.833 1.95 2.5v0c0.067 1.7-0.583 2.55-1.95 2.55v0h-14.65v29.65h15.55c1.233 0 1.867 0.817 1.9 2.45v0c0.067 1.733-0.567 2.6-1.9 2.6zM146.55 22.8v0c0 1.167-0.41 2.15-1.23 2.95-0.813 0.8-1.803 1.2-2.97 1.2v0c-1.133 0-2.1-0.4-2.9-1.2-0.8-0.8-1.2-1.783-1.2-2.95v0c0-1.167 0.4-2.15 1.2-2.95 0.8-0.8 1.767-1.2 2.9-1.2v0c1.167 0 2.157 0.4 2.97 1.2 0.82 0.8 1.23 1.783 1.23 2.95zM178.1 43.5h-18.3c-1.233 0-2.067-0.317-2.5-0.95-0.433-0.633-0.65-1.333-0.65-2.1v0-33.7c0-0.767 0.217-1.46 0.65-2.08 0.433-0.613 1.267-0.92 2.5-0.92v0h17.4c1.233 0 1.883 0.833 1.95 2.5v0c0.067 1.7-0.583 2.55-1.95 2.55v0h-14.65v29.65h15.55c1.233 0 1.867 0.817 1.9 2.45v0c0.067 1.733-0.567 2.6-1.9 2.6zM175.35 22.8v0c0 1.167-0.407 2.15-1.22 2.95-0.82 0.8-1.813 1.2-2.98 1.2v0c-1.133 0-2.1-0.4-2.9-1.2-0.8-0.8-1.2-1.783-1.2-2.95v0c0-1.167 0.4-2.15 1.2-2.95 0.8-0.8 1.767-1.2 2.9-1.2v0c1.167 0 2.16 0.4 2.98 1.2 0.813 0.8 1.22 1.783 1.22 2.95z" fill="black" fill-rule="nonzero" stroke="none" stroke-width="1" stroke-linecap="butt" stroke-linejoin="miter" stroke-miterlimit="10" stroke-dasharray="" stroke-dashoffset="0" font-family="none" font-weight="none" font-size="none" text-anchor="none" style="mix-blend-mode: normal" opacity="1"></path><path d="M13.3 64.05h9.65c0.867 0 1.767 0.183 2.7 0.55 0.933 0.367 1.833 0.85 2.7 1.45v0h-0.05c0.867 0.6 1.533 1.417 2 2.45 0.467 1.033 0.7 2.217 0.7 3.55v0 6.85c0 2.7-0.9 4.717-2.7 6.05v0c-0.867 0.633-1.757 1.123-2.67 1.47-0.92 0.353-1.813 0.53-2.68 0.53v0h-10.9c-0.867 0-1.757-0.177-2.67-0.53-0.92-0.347-1.813-0.837-2.68-1.47v0c-1.8-1.333-2.7-3.35-2.7-6.05v0-3.3c0-1.567 0.983-2.35 2.95-2.35v0c2 0 3 0.783 3 2.35v0 2.9c0 0.867 0.25 1.65 0.75 2.35 0.5 0.7 1.367 1.05 2.6 1.05v0h8.4c1.233 0 2.1-0.35 2.6-1.05 0.5-0.7 0.75-1.483 0.75-2.35v0-6.05c0-0.833-0.25-1.61-0.75-2.33-0.5-0.713-1.367-1.07-2.6-1.07v0h-9.65c-1.733 0-3.517-0.633-5.35-1.9v0c-1.8-1.4-2.7-3.417-2.7-6.05v0-5.95c0-1.333 0.233-2.507 0.7-3.52 0.467-1.02 1.133-1.847 2-2.48v0h-0.05c0.867-0.567 1.767-1.033 2.7-1.4 0.933-0.367 1.833-0.55 2.7-0.55v0h10.9c0.867 0 1.767 0.183 2.7 0.55 0.933 0.367 1.833 0.833 2.7 1.4v0h-0.05c0.867 0.633 1.533 1.46 2 2.48 0.467 1.013 0.7 2.187 0.7 3.52v0 2.95c0 1.567-1 2.35-3 2.35v0c-1.967 0-2.95-0.783-2.95-2.35v0-2.5c0-0.833-0.25-1.6-0.75-2.3-0.5-0.7-1.367-1.05-2.6-1.05v0h-8.4c-1.233 0-2.1 0.35-2.6 1.05-0.5 0.7-0.75 1.467-0.75 2.3v0 5.1c0 0.867 0.25 1.64 0.75 2.32 0.5 0.687 1.367 1.03 2.6 1.03zM65.8 49.35v29.55c0 2.7-0.9 4.717-2.7 6.05v0c-0.867 0.633-1.757 1.123-2.67 1.47-0.92 0.353-1.813 0.53-2.68 0.53v0h-10.9c-0.867 0-1.757-0.177-2.67-0.53-0.92-0.347-1.813-0.837-2.68-1.47v0c-0.867-0.667-1.533-1.49-2-2.47-0.467-0.987-0.7-2.18-0.7-3.58v0-29.55c0-1.6 0.983-2.4 2.95-2.4v0c2 0 3 0.8 3 2.4v0 29.15c0 0.867 0.25 1.65 0.75 2.35 0.5 0.7 1.367 1.05 2.6 1.05v0h8.4c1.233 0 2.1-0.35 2.6-1.05 0.5-0.7 0.75-1.483 0.75-2.35v0-29.15c0-1.6 0.983-2.4 2.95-2.4v0c2 0 3 0.8 3 2.4zM91.2 72.2h-6.9c-0.567 0-1.007-0.227-1.32-0.68-0.32-0.447-0.48-1.053-0.48-1.82v0c0-1.7 0.7-2.55 2.1-2.55v0h5.3c1.233 0 2.11-0.35 2.63-1.05 0.513-0.7 0.77-1.467 0.77-2.3v0-8.2c0-0.833-0.257-1.6-0.77-2.3-0.52-0.7-1.397-1.05-2.63-1.05v0h-10.5v32.65c0 1.6-1 2.4-3 2.4v0c-1.933 0-2.9-0.8-2.9-2.4v0-34.7c0-1.2 0.3-2 0.9-2.4 0.6-0.4 1.333-0.6 2.2-0.6v0h14.6c0.833 0 1.717 0.183 2.65 0.55 0.933 0.367 1.833 0.833 2.7 1.4v0h-0.05c0.867 0.633 1.533 1.46 2 2.48 0.467 1.013 0.7 2.187 0.7 3.52v0 9.05c0 2.7-0.9 4.717-2.7 6.05v0c-0.867 0.633-1.75 1.117-2.65 1.45-0.9 0.333-1.783 0.5-2.65 0.5zM124.55 72.2h-6.9c-0.567 0-1.007-0.227-1.32-0.68-0.32-0.447-0.48-1.053-0.48-1.82v0c0-1.7 0.7-2.55 2.1-2.55v0h5.3c1.233 0 2.11-0.35 2.63-1.05 0.513-0.7 0.77-1.467 0.77-2.3v0-8.2c0-0.833-0.257-1.6-0.77-2.3-0.52-0.7-1.397-1.05-2.63-1.05v0h-10.5v32.65c0 1.6-1 2.4-3 2.4v0c-1.933 0-2.9-0.8-2.9-2.4v0-34.7c0-1.2 0.3-2 0.9-2.4 0.6-0.4 1.333-0.6 2.2-0.6v0h14.6c0.833 0 1.717 0.183 2.65 0.55 0.933 0.367 1.833 0.833 2.7 1.4v0h-0.05c0.867 0.633 1.533 1.46 2 2.48 0.467 1.013 0.7 2.187 0.7 3.52v0 9.05c0 2.7-0.9 4.717-2.7 6.05v0c-0.867 0.633-1.75 1.117-2.65 1.45-0.9 0.333-1.783 0.5-2.65 0.5zM162.75 86.95h-19.45c-1.233 0-2.067-0.317-2.5-0.95-0.433-0.633-0.65-1.333-0.65-2.1v0-34.55c0-1.6 0.967-2.4 2.9-2.4v0c2 0 3 0.8 3 2.4v0 32.55h16.7c1.2 0 1.8 0.817 1.8 2.45v0c0.067 1.733-0.533 2.6-1.8 2.6zM175.3 49.35v35.45c0 1.6-1 2.4-3 2.4v0c-1.967 0-2.95-0.8-2.95-2.4v0-35.45c0-1.6 0.983-2.4 2.95-2.4v0c2 0 3 0.8 3 2.4zM204.8 86.95h-18.3c-1.233 0-2.067-0.317-2.5-0.95-0.433-0.633-0.65-1.333-0.65-2.1v0-33.7c0-0.767 0.217-1.46 0.65-2.08 0.433-0.613 1.267-0.92 2.5-0.92v0h17.4c1.233 0 1.883 0.833 1.95 2.5v0c0.067 1.7-0.583 2.55-1.95 2.55v0h-14.65v29.65h15.55c1.233 0 1.867 0.817 1.9 2.45v0c0.067 1.733-0.567 2.6-1.9 2.6zM202.05 66.25v0c0 1.167-0.407 2.15-1.22 2.95-0.82 0.8-1.813 1.2-2.98 1.2v0c-1.133 0-2.1-0.4-2.9-1.2-0.8-0.8-1.2-1.783-1.2-2.95v0c0-1.167 0.4-2.15 1.2-2.95 0.8-0.8 1.767-1.2 2.9-1.2v0c1.167 0 2.16 0.4 2.98 1.2 0.813 0.8 1.22 1.783 1.22 2.95zM235.7 86.3l-9.45-15.85h-3.85c-0.567 0-1.007-0.227-1.32-0.68-0.32-0.447-0.48-1.053-0.48-1.82v0c0-1.7 0.7-2.55 2.1-2.55v0h5.85c1.233 0 2.1-0.35 2.6-1.05 0.5-0.7 0.75-1.467 0.75-2.3v0-6.45c0-0.833-0.25-1.6-0.75-2.3-0.5-0.7-1.367-1.05-2.6-1.05v0h-10.55v32.6c0 1.6-0.983 2.4-2.95 2.4v0c-1.967 0-2.95-0.8-2.95-2.4v0-34.65c0-1.2 0.31-2 0.93-2.4 0.613-0.4 1.353-0.6 2.22-0.6v0h14.55c0.867 0 1.767 0.183 2.7 0.55 0.933 0.367 1.833 0.833 2.7 1.4v0h-0.05c0.867 0.633 1.533 1.46 2 2.48 0.467 1.013 0.7 2.187 0.7 3.52v0 7.3c0 2.7-0.9 4.717-2.7 6.05v0c-0.367 0.267-0.757 0.517-1.17 0.75-0.42 0.233-0.847 0.467-1.28 0.7v0l8 13.2c0.1 0.167 0.2 0.383 0.3 0.65 0.1 0.267 0.15 0.483 0.15 0.65v0c0 0.8-0.567 1.567-1.7 2.3v0-0.05c-0.767 0.467-1.417 0.7-1.95 0.7v0c-0.767 0-1.383-0.383-1.85-1.15v0zM255.1 64.05h9.65c0.867 0 1.767 0.183 2.7 0.55 0.933 0.367 1.833 0.85 2.7 1.45v0h-0.05c0.867 0.6 1.533 1.417 2 2.45 0.467 1.033 0.7 2.217 0.7 3.55v0 6.85c0 2.7-0.9 4.717-2.7 6.05v0c-0.867 0.633-1.757 1.123-2.67 1.47-0.92 0.353-1.813 0.53-2.68 0.53v0h-10.9c-0.867 0-1.757-0.177-2.67-0.53-0.92-0.347-1.813-0.837-2.68-1.47v0c-1.8-1.333-2.7-3.35-2.7-6.05v0-3.3c0-1.567 0.983-2.35 2.95-2.35v0c2 0 3 0.783 3 2.35v0 2.9c0 0.867 0.25 1.65 0.75 2.35 0.5 0.7 1.367 1.05 2.6 1.05v0h8.4c1.233 0 2.1-0.35 2.6-1.05 0.5-0.7 0.75-1.483 0.75-2.35v0-6.05c0-0.833-0.25-1.61-0.75-2.33-0.5-0.713-1.367-1.07-2.6-1.07v0h-9.65c-1.733 0-3.517-0.633-5.35-1.9v0c-1.8-1.4-2.7-3.417-2.7-6.05v0-5.95c0-1.333 0.233-2.507 0.7-3.52 0.467-1.02 1.133-1.847 2-2.48v0h-0.05c0.867-0.567 1.767-1.033 2.7-1.4 0.933-0.367 1.833-0.55 2.7-0.55v0h10.9c0.867 0 1.767 0.183 2.7 0.55 0.933 0.367 1.833 0.833 2.7 1.4v0h-0.05c0.867 0.633 1.533 1.46 2 2.48 0.467 1.013 0.7 2.187 0.7 3.52v0 2.95c0 1.567-1 2.35-3 2.35v0c-1.967 0-2.95-0.783-2.95-2.35v0-2.5c0-0.833-0.25-1.6-0.75-2.3-0.5-0.7-1.367-1.05-2.6-1.05v0h-8.4c-1.233 0-2.1 0.35-2.6 1.05-0.5 0.7-0.75 1.467-0.75 2.3v0 5.1c0 0.867 0.25 1.64 0.75 2.32 0.5 0.687 1.367 1.03 2.6 1.03z" fill="black" fill-rule="nonzero" stroke="none" stroke-width="1" stroke-linecap="butt" stroke-linejoin="miter" stroke-miterlimit="10" stroke-dasharray="" stroke-dashoffset="0" font-family="none" font-weight="none" font-size="none" text-anchor="none" style="mix-blend-mode: normal" opacity="1"></path></g></svg></g></svg></g></svg></g></svg></g><g></g></svg></g></svg></g></svg></g></svg></g><defs><mask></mask></defs></svg><rect width="342.85155851775386" height="342.85155851775386" fill="black" stroke="none" visibility="hidden"></rect></g></mask><linearGradient x1="0.054" x2="0.941" y1="0.5" y2="0.5" id="eedde06c-8480-41c7-ad16-431aa9f5b9f7"><stop stop-color="#9c7945" offset="0"></stop><stop stop-color="#faf3aa" offset="0.498"></stop><stop stop-color="#9c7945" offset="1"></stop></linearGradient></svg><rect width="342.85155851775386" height="342.85155851775386" fill="none" stroke="none" visibility="hidden"></rect></g></svg></g></svg>